<svg xmlns="http://www.w3.org/2000/svg" xmlns:xlink="http://www.w3.org/1999/xlink" width="984" height="984" viewBox="0 0 984 984">
  <defs>
    <style>
      .cls-1 {
        fill: #f65d32;
      }

      .cls-2 {
        fill-rule: evenodd;
        filter: url(#filter);
      }
    </style>
    <filter id="filter" x="227.531" y="90" width="528.781" height="700" filterUnits="userSpaceOnUse">
      <feFlood result="flood" flood-color="#fff"/>
      <feComposite result="composite" operator="in" in2="SourceGraphic"/>
      <feBlend result="blend" in2="SourceGraphic"/>
    </filter>
  </defs>
  <circle class="cls-1" cx="492" cy="492" r="492"/>
  <path id="Color_Fill_1" data-name="Color Fill 1" class="cls-2" d="M490,90c18.036,3.377,49.924,5.6,67,12,41.908,15.707,81.269,56.865,98,98,6.533,16.062,6.034,37.947,12,54q0.5,72.492,1,145c102.34-.685,87,112.08,87,214,0,42.709,6.026,98.067-8,129-10.162,22.412-36.823,39.058-61,48H299c-24.1-9.011-50.931-25.533-61-48-17.256-38.5-8-155.2-8-211,0-31.368-2.037-62.867,8-85,14.712-32.442,42.066-38.318,80-48-0.277-40.85-7.7-115.153,4-147V226c20.6-55.625,51.206-103.626,106-124,18.225-6.776,38.389-4.061,61-8Q489.5,92,490,90Zm-21,88c-12.375,12.64-38.834,13.308-48,29a221.324,221.324,0,0,0-16,34q0.5,78.492,1,157l174-1C581.218,267.571,606.513,176.672,469,178Zm9,350c-36.531,29.936-42.59,40.816-11,81-0.813,49.411-7.71,77.164,24,97,31.344-5.714,25.992-39.422,26-76V609c3.046-9.222,17.2-14.878,21-25,3.57-9.518-2.572-20.7-4-25C525.541,533.537,512.776,527.3,478,528Z"/>
</svg>
