<?xml version="1.0"?>
<svg xmlns="http://www.w3.org/2000/svg" id="Capa_1" enable-background="new 0 0 511.998 511.998" height="512px" viewBox="0 0 511.998 511.998" width="512px" class=""><g><g><path d="m370.721 46.201h40.056v150.096h-40.056z" transform="matrix(.707 -.707 .707 .707 28.712 311.814)" data-original="#000000" class="active-path" data-old_color="#000000" fill="#FFFFFF"/><path d="m479.191 138.941 30.842-30.842.927-4.334c.358-1.672 8.363-41.354-26.505-76.221-34.867-34.868-74.55-26.864-76.222-26.507l-4.334.928-30.842 30.842z" data-original="#000000" class="active-path" data-old_color="#000000" fill="#FFFFFF"/><path d="m69.233 290.148h372.533v60.048h-372.533z" transform="matrix(.707 -.707 .707 .707 -151.561 274.442)" data-original="#000000" class="active-path" data-old_color="#000000" fill="#FFFFFF"/><path d="m22.664 393.182-22.664 118.816 118.816-22.664z" data-original="#000000" class="active-path" data-old_color="#000000" fill="#FFFFFF"/><path d="m5.56 226.474h372.534v60.048h-372.534z" transform="matrix(.707 -.707 .707 .707 -125.187 210.768)" data-original="#000000" class="active-path" data-old_color="#000000" fill="#FFFFFF"/></g></g> </svg>
