<svg xmlns="http://www.w3.org/2000/svg" width="984" height="984" viewBox="0 0 984 984">
  <defs>
    <style>
      .cls-1 {
        fill: #ffa576;
      }
      .cls-2 {
        fill: #fff;
        fill-rule: evenodd;
      }
    </style>
  </defs>
  <circle class="cls-1" cx="492" cy="492" r="492" />
  <path id="Color_Fill_2" data-name="Color Fill 2" class="cls-2"
    d="M513.326,396.181H444.369c1.38-78.719-15.382-140.02-91.546-140.292-29.395-.105-48.108,7.311-64.2,20.212-28.091,22.517-32.106,66.6-32.1,117.7q-0.6,24.37-1.189,48.746H186.375c-1.438-113.56,9.686-191.1,77.279-234.217,21.343-13.614,57.643-24.451,90.358-21.4C471.659,197.9,514.311,266.839,513.326,396.181Zm-120.08,23.778H659.563c53.592,0,98.612-2.978,121.269,27.345,25.979,34.77,14.266,127.822,14.267,185.471,0,48.737,5.887,107.849-15.456,135.536-27.819,36.09-106.82,26.156-170.015,26.156-81.217,0-239.736,17.5-271.072-30.911-20.329-31.405-10.7-173.064-10.7-228.272,0-28.144-2.432-59.9,7.134-78.468C347.5,432.534,366.365,430.832,393.246,419.959ZM554.938,536.473c-38.953,16.952-64.032,59.256-17.834,87.98-0.964,31.569-6.654,89.66,32.1,76.09,27.278-9.551,6.84-52.756,17.834-78.468C629.235,603.3,606.412,534.984,554.938,536.473Z" />
</svg>